<svg xmlns="http://www.w3.org/2000/svg" viewBox="0 0 600 360" role="img" aria-labelledby="title">
  <title id="title">Ilustración de un desayuno con pan tostado y huevo</title>
  <rect width="600" height="360" fill="#edebe3"/>
  <ellipse cx="300" cy="283" rx="142" ry="16" fill="#dfd3bd"/>
  <g stroke="#293b99" stroke-width="3" stroke-linecap="round" stroke-linejoin="round">
    <ellipse cx="300" cy="205" rx="141" ry="77" fill="#fcf8ee"/>
    <ellipse cx="300" cy="205" rx="120" ry="59" fill="none" stroke="#c8b89c" stroke-width="2"/>
    <path d="M202 174c-12-15-9-34 6-43 13-8 28-6 38 1 13-8 28-8 40 2 14 12 15 29 4 42l4 70c0 7-6 11-12 11h-73c-7 0-13-4-12-11z" fill="#ad6547"/>
    <path d="M213 177c-8-11-6-24 4-30 8-5 19-4 29 3 9-7 22-7 31 0 8 7 9 18 0 29l4 64h-71z" fill="#dcb887" stroke="#ad6547" stroke-width="2"/>
    <path d="m226 171 12 47m13-53 9 42m-32 24 35-8" fill="none" stroke="#ad6547" stroke-width="2"/>
    <path d="M298 181c5-18 23-24 38-18 15-14 39-6 42 12 21 1 30 22 19 36-2 21-24 30-42 22-16 12-42 8-46-10-25-7-29-28-11-42z" fill="#fffdf5" stroke="#c8b89c" stroke-width="2"/>
    <circle cx="345" cy="196" r="24" fill="#d6a34e" stroke="#ad6547" stroke-width="2"/>
    <path d="M338 183c6-4 13-3 18 1" fill="none" stroke="#f6d99b" stroke-width="4"/>
    <path d="M304 247c16-12 39-13 55-3-12 13-39 20-55 3z" fill="#789174"/>
    <path d="m311 246 38-2" fill="none" stroke="#293b99" stroke-width="2"/>
    <path d="m174 115 11-11m-4 30-14-2m237-19 11-11m-3 31 13-1" fill="none" stroke="#ad6547" stroke-width="2"/>
  </g>
</svg>
